<svg width="16" height="18" viewBox="0 0 16 18" fill="none" xmlns="http://www.w3.org/2000/svg">
<path d="M8.39844 16.8037L8.85887 17.6914L8.8589 17.6914L8.39844 16.8037ZM7.60156 16.8037L7.1411 17.6914L7.14113 17.6914L7.60156 16.8037ZM8 1V2C11.3137 2 14 4.68629 14 8H15H16C16 3.58172 12.4183 0 8 0V1ZM15 8H14C14 10.1456 12.9081 11.9156 11.5453 13.2902C10.1835 14.6639 8.63484 15.5545 7.93797 15.916L8.39844 16.8037L8.8589 17.6914C9.64551 17.2833 11.3976 16.28 12.9657 14.6983C14.5329 13.1174 16 10.8703 16 8H15ZM8.39844 16.8037L7.938 15.916C7.95211 15.9087 7.97381 15.9021 8 15.9021C8.02619 15.9021 8.04789 15.9087 8.062 15.916L7.60156 16.8037L7.14113 17.6914C7.68269 17.9723 8.31731 17.9723 8.85887 17.6914L8.39844 16.8037ZM7.60156 16.8037L8.06203 15.916C7.36516 15.5545 5.81648 14.6639 4.45465 13.2902C3.0919 11.9156 2 10.1456 2 8H1H0C0 10.8703 1.46714 13.1174 3.0343 14.6983C4.60239 16.28 6.35449 17.2833 7.1411 17.6914L7.60156 16.8037ZM1 8H2C2 4.68629 4.68629 2 8 2V1V0C3.58172 0 0 3.58172 0 8H1ZM8 5V4C5.79086 4 4 5.79086 4 8H5H6C6 6.89543 6.89543 6 8 6V5ZM5 8H4C4 10.2091 5.79086 12 8 12V11V10C6.89543 10 6 9.10457 6 8H5ZM8 11V12C10.2091 12 12 10.2091 12 8H11H10C10 9.10457 9.10457 10 8 10V11ZM11 8H12C12 5.79086 10.2091 4 8 4V5V6C9.10457 6 10 6.89543 10 8H11Z" fill="white"/>
</svg>
